<svg width="80" height="24" viewBox="0 0 80 24" fill="none" xmlns="http://www.w3.org/2000/svg">
<path d="M0 0.967125C0 0.633242 0.271865 0.333984 0.64442 0.333984H8.54864C12.5524 0.333984 15.8424 3.03349 15.8424 6.53308C15.8424 9.10027 13.5014 10.9663 11.9067 11.7998C13.7053 12.5331 16.4529 14.1666 16.4529 17.2334C16.4529 20.9667 13.0948 23.6662 9.05713 23.6662H0.64442C0.270606 23.6662 0 23.3657 0 23.0331V0.967125ZM7.9382 9.80018C9.22704 9.80018 10.3132 8.733 10.3132 7.39994C10.3132 6.06688 9.22704 5.13324 7.9382 5.13324H5.29255V9.80018H7.9382V9.80018ZM8.37872 18.8991C9.70155 18.8991 10.8217 17.8319 10.8217 16.4655C10.8217 15.099 9.36297 14.132 8.04015 14.132H5.29255V18.8979H8.37998L8.37872 18.8991Z" fill="#C70568"/>
<path d="M16.2539 22.798L26.873 0.366037C26.975 0.165708 27.2129 0 27.4495 0H27.7893C28.0272 0 28.2638 0.166944 28.3658 0.366037L38.9849 22.798C39.1888 23.2308 38.9169 23.6649 38.4084 23.6649H34.6426C34.0321 23.6649 33.7603 23.4646 33.4557 22.8314L32.2348 20.1987H23.0065L21.7856 22.8648C21.6157 23.2642 21.2432 23.6649 20.5648 23.6649H16.8329C16.3244 23.6649 16.0526 23.2321 16.2565 22.798H16.2539ZM30.1971 15.6653L27.6181 10.1661H27.5842L25.0392 15.6653H30.1958H30.1971Z" fill="#C70568"/>
<path d="M49.3649 0C52.7569 0 55.2679 1.0338 57.575 3.10017C57.8808 3.36727 57.8808 3.76669 57.609 4.0338L54.9633 6.73331C54.7254 6.96702 54.3529 6.96702 54.115 6.73331C52.8601 5.63397 51.1975 5.03298 49.5348 5.03298C45.701 5.03298 42.8855 8.16653 42.8855 11.8998C42.8855 15.6331 45.735 18.6665 49.5688 18.6665C51.1635 18.6665 52.8929 18.1002 54.115 17.0664C54.3529 16.866 54.7934 16.866 54.9973 17.0998L57.6429 19.866C57.8808 20.0998 57.8468 20.5326 57.609 20.7663C55.3019 22.9662 52.3844 24 49.3649 24C42.5796 24 37.1184 18.6999 37.1184 12.0346C37.1184 5.36933 42.5809 0.00247562 49.3649 0.00247562V0Z" fill="#C70568"/>
<path d="M59.6442 0.967125C59.6442 0.633242 59.95 0.333984 60.2886 0.333984H64.3263C64.7001 0.333984 64.9707 0.634478 64.9707 0.967125V9.36613H74.6735V0.967125C74.6735 0.633242 74.9454 0.333984 75.3179 0.333984H79.3556C79.6942 0.333984 80 0.634478 80 0.967125V23.0331C80 23.367 79.6942 23.6662 79.3556 23.6662H75.3179C74.9454 23.6662 74.6735 23.3657 74.6735 23.0331V14.2668H64.9707V23.0331C64.9707 23.367 64.6988 23.6662 64.3263 23.6662H60.2886C59.9488 23.6662 59.6442 23.3657 59.6442 23.0331V0.967125V0.967125Z" fill="#C70568"/>
</svg>
